sfk_cyclingleg_x_-0.09_y_-0.04_states
version=1
nRows=6
nColumns=53
inDegrees=yes

# SIMM Motion File Header:
name sfk_cyclingleg_x_-0.09_y_-0.04_states
datacolumns 53
datarows 6
otherdata 1
range 0.84100962 0.84221868
endheader
time	/jointset/bb/crank_angle/value	/jointset/bb/crank_angle/speed	/jointset/spindle/pedal_angle_r/value	/jointset/spindle/pedal_angle_r/speed	/jointset/ground_pelvis/pelvis_tilt/value	/jointset/ground_pelvis/pelvis_tilt/speed	/jointset/ground_pelvis/pelvis_list/value	/jointset/ground_pelvis/pelvis_list/speed	/jointset/ground_pelvis/pelvis_rotation/value	/jointset/ground_pelvis/pelvis_rotation/speed	/jointset/ground_pelvis/pelvis_tx/value	/jointset/ground_pelvis/pelvis_tx/speed	/jointset/ground_pelvis/pelvis_ty/value	/jointset/ground_pelvis/pelvis_ty/speed	/jointset/ground_pelvis/pelvis_tz/value	/jointset/ground_pelvis/pelvis_tz/speed	/jointset/hip_r/hip_angle_r/value	/jointset/hip_r/hip_angle_r/speed	/jointset/hip_r/hip_adduction_r/value	/jointset/hip_r/hip_adduction_r/speed	/jointset/hip_r/hip_rotation_r/value	/jointset/hip_r/hip_rotation_r/speed	/jointset/knee_r/knee_angle_r/value	/jointset/knee_r/knee_angle_r/speed	/jointset/knee_r/tib_tx_r/value	/jointset/knee_r/tib_tx_r/speed	/jointset/knee_r/tib_ty_r/value	/jointset/knee_r/tib_ty_r/speed	/jointset/tib_pat_r/pat_angle_r/value	/jointset/tib_pat_r/pat_angle_r/speed	/jointset/tib_pat_r/pat_tx_r/value	/jointset/tib_pat_r/pat_tx_r/speed	/jointset/tib_pat_r/pat_ty_r/value	/jointset/tib_pat_r/pat_ty_r/speed	/jointset/ankle_r/ankle_angle_r/value	/jointset/ankle_r/ankle_angle_r/speed	/jointset/subtalar_r/subtalar_angle_r/value	/jointset/subtalar_r/subtalar_angle_r/speed	/jointset/mtp_r/mtp_angle_r/value	/jointset/mtp_r/mtp_angle_r/speed	/forceset/bifemlh_r/activation	/forceset/bifemlh_r/fiber_length	/forceset/bifemsh_r/activation	/forceset/bifemsh_r/fiber_length	/forceset/glut_max2_r/activation	/forceset/glut_max2_r/fiber_length	/forceset/vas_int_r/activation	/forceset/vas_int_r/fiber_length	/forceset/med_gas_r/activation	/forceset/med_gas_r/fiber_length	/forceset/tib_ant_r/activation	/forceset/tib_ant_r/fiber_length
      0.84100962	   -413.93608566	   -480.13863232	    417.96473690	    577.38278050	     -0.00000000	      0.00000000	      0.00000000	      0.00000000	      0.00000000	      0.00000000	     -0.09000000	     -0.00000000	     -0.04000000	      0.00000000	     -0.00000000	     -0.00000000	     76.78025898	   -130.38805937	      4.25730180	      1.92309112	     -2.00772011	     21.38074365	    -95.51156781	    263.13047416	      0.00296857	      0.04631445	     -0.48784750	      0.09114195	     17.58775953	     -1.08142905	      0.03059547	      0.10609218	     -0.02293521	      0.01277561	     23.30821310	    -36.97004626	     -0.00000000	     -0.00000000	      0.00000000	     -0.00000000	     -0.21158787	      0.13848769	     -0.21158787	      0.14967175	     -0.21158787	      0.15349492	     -0.21158787	      0.15126090	     -0.21158787	      0.13410644	     -0.21158787	      0.11537869
      0.84127587	   -414.06392279	   -480.13863232	    418.11845578	    577.31113662	     -0.00000000	      0.00000000	      0.00000000	      0.00000000	      0.00000000	      0.00000000	     -0.09000000	     -0.00000000	     -0.04000000	      0.00000000	     -0.00000000	     -0.00000000	     76.74549307	   -130.76374421	      4.25781354	      1.92097347	     -2.00202670	     21.38660299	    -95.44148103	    263.34196560	      0.00298088	      0.04621153	     -0.48782322	      0.09122079	     17.58747165	     -1.08109688	      0.03062372	      0.10610548	     -0.02293181	      0.01274892	     23.29838230	    -36.87618844	     -0.00000000	     -0.00000000	      0.00000000	     -0.00000000	     -0.21162215	      0.13847964	     -0.21162215	      0.14969473	     -0.21162215	      0.15347978	     -0.21162215	      0.15122397	     -0.21162215	      0.13412224	     -0.21162215	      0.11538742
      0.84168157	   -414.25871473	   -480.13863232	    418.35264848	    577.20240308	     -0.00000000	      0.00000000	      0.00000000	      0.00000000	      0.00000000	      0.00000000	     -0.09000000	     -0.00000000	     -0.04000000	      0.00000000	     -0.00000000	     -0.00000000	     76.69232641	   -131.33475470	      4.25859222	      1.91771400	     -1.99334837	     21.39546065	    -95.33457822	    263.66281841	      0.00299960	      0.04605395	     -0.48778619	      0.09134024	     17.58703316	     -1.08051943	      0.03066677	      0.10612497	     -0.02292665	      0.01270789	     23.28345073	    -36.73275954	     -0.00000000	     -0.00000000	      0.00000000	     -0.00000000	     -0.21167438	      0.13846731	     -0.21167438	      0.14972987	     -0.21167438	      0.15345662	     -0.21167438	      0.15116760	     -0.21167438	      0.13422704	     -0.21167438	      0.11540067
      0.84172398	   -414.27908028	   -480.13863232	    418.37713084	    577.19106521	     -0.00000000	      0.00000000	      0.00000000	      0.00000000	      0.00000000	      0.00000000	     -0.09000000	     -0.00000000	     -0.04000000	      0.00000000	     -0.00000000	     -0.00000000	     76.68675446	   -131.39435357	      4.25867355	      1.91737094	     -1.99244084	     21.39638184	    -95.32339400	    263.69626562	      0.00300155	      0.04603743	     -0.48778231	      0.09135269	     17.58698733	     -1.08045406	      0.03067127	      0.10612696	     -0.02292611	      0.01270358	     23.28189299	    -36.71773538	     -0.00000000	     -0.00000000	      0.00000000	     -0.00000000	     -0.21167984	      0.13846601	     -0.21167984	      0.14973355	     -0.21167984	      0.15345419	     -0.21167984	      0.15116170	     -0.21167984	      0.13420715	     -0.21167984	      0.11540206
      0.84187129	   -414.34980795	   -480.13863232	    418.46215209	    577.15173431	     -0.00000000	      0.00000000	      0.00000000	      0.00000000	      0.00000000	      0.00000000	     -0.09000000	     -0.00000000	     -0.04000000	      0.00000000	     -0.00000000	     -0.00000000	     76.66738394	   -131.60118729	      4.25895591	      1.91617621	     -1.98928877	     21.39957394	    -95.28454120	    263.81228071	      0.00300833	      0.04597996	     -0.48776885	      0.09139583	     17.58682819	     -1.08021971	      0.03068690	      0.10613376	     -0.02292424	      0.01268856	     23.27648807	    -36.66551590	     -0.00000000	     -0.00000000	      0.00000000	     -0.00000000	     -0.21169881	      0.13846152	     -0.21169881	      0.14974635	     -0.21169881	      0.15344574	     -0.21169881	      0.15114120	     -0.21169881	      0.13419666	     -0.21169881	      0.11540685
      0.84221868	   -414.51660262	   -480.13863232	    418.66263194	    577.05925500	     -0.00000000	      0.00000000	      0.00000000	      0.00000000	      0.00000000	      0.00000000	     -0.09000000	     -0.00000000	     -0.04000000	      0.00000000	     -0.00000000	     -0.00000000	     76.62158259	   -132.08804780	      4.25962107	      1.91333826	     -1.98185350	     21.40705820	    -95.19284843	    264.08499038	      0.00302428	      0.04584398	     -0.48773708	      0.09149716	     17.58645303	     -1.07962171	      0.03072377	      0.10614933	     -0.02291984	      0.01265291	     23.26377231	    -36.54211169	     -0.00000000	     -0.00000000	      0.00000000	     -0.00000000	     -0.21174354	      0.13845088	     -0.21174354	      0.14977662	     -0.21174354	      0.15342574	     -0.21174354	      0.15109278	     -0.21174354	      0.13419763	     -0.21174354	      0.11541814
